<mxfile host="app.diagrams.net" modified="2024-01-28T12:03:14.456Z" agent="Mozilla/5.0 (Macintosh; Intel Mac OS X 10_15_7) AppleWebKit/537.36 (KHTML, like Gecko) Chrome/121.0.0.0 Safari/537.36" etag="N3LeUzvrXSx2Yo3nyt51" version="23.0.1" type="github">
  <diagram id="C5RBs43oDa-KdzZeNtuy" name="Page-1">
    <mxGraphModel dx="954" dy="606" grid="1" gridSize="10" guides="1" tooltips="1" connect="1" arrows="1" fold="1" page="1" pageScale="1" pageWidth="827" pageHeight="1169" math="0" shadow="0">
      <root>
        <mxCell id="WIyWlLk6GJQsqaUBKTNV-0" />
        <mxCell id="WIyWlLk6GJQsqaUBKTNV-1" parent="WIyWlLk6GJQsqaUBKTNV-0" />
        <mxCell id="D7GcsO-b-HbT9hcHtuYs-0" value="dataSourceRoute" style="swimlane;fontStyle=1;align=center;verticalAlign=top;childLayout=stackLayout;horizontal=1;startSize=26;horizontalStack=0;resizeParent=1;resizeParentMax=0;resizeLast=0;collapsible=1;marginBottom=0;whiteSpace=wrap;html=1;" vertex="1" parent="WIyWlLk6GJQsqaUBKTNV-1">
          <mxGeometry x="280" y="150" width="270" height="170" as="geometry" />
        </mxCell>
        <mxCell id="D7GcsO-b-HbT9hcHtuYs-1" value="+ dataSourcesModel:dataSourcesModel&lt;br&gt;+ dataSourcesDb: dataSourcesDb" style="text;strokeColor=none;fillColor=none;align=left;verticalAlign=top;spacingLeft=4;spacingRight=4;overflow=hidden;rotatable=0;points=[[0,0.5],[1,0.5]];portConstraint=eastwest;whiteSpace=wrap;html=1;" vertex="1" parent="D7GcsO-b-HbT9hcHtuYs-0">
          <mxGeometry y="26" width="270" height="34" as="geometry" />
        </mxCell>
        <mxCell id="D7GcsO-b-HbT9hcHtuYs-2" value="" style="line;strokeWidth=1;fillColor=none;align=left;verticalAlign=middle;spacingTop=-1;spacingLeft=3;spacingRight=3;rotatable=0;labelPosition=right;points=[];portConstraint=eastwest;strokeColor=inherit;" vertex="1" parent="D7GcsO-b-HbT9hcHtuYs-0">
          <mxGeometry y="60" width="270" height="8" as="geometry" />
        </mxCell>
        <mxCell id="D7GcsO-b-HbT9hcHtuYs-3" value="+ findByPage(params): void&lt;br&gt;+ findList(params): void&lt;br&gt;+ getDetails(id): void&lt;br&gt;+ create(data): void&lt;br&gt;+ update(data): void&lt;br&gt;+ delete(id): void" style="text;strokeColor=none;fillColor=none;align=left;verticalAlign=top;spacingLeft=4;spacingRight=4;overflow=hidden;rotatable=0;points=[[0,0.5],[1,0.5]];portConstraint=eastwest;whiteSpace=wrap;html=1;" vertex="1" parent="D7GcsO-b-HbT9hcHtuYs-0">
          <mxGeometry y="68" width="270" height="102" as="geometry" />
        </mxCell>
        <mxCell id="D7GcsO-b-HbT9hcHtuYs-5" value="dataSourcesModel" style="swimlane;fontStyle=1;align=center;verticalAlign=top;childLayout=stackLayout;horizontal=1;startSize=26;horizontalStack=0;resizeParent=1;resizeParentMax=0;resizeLast=0;collapsible=1;marginBottom=0;whiteSpace=wrap;html=1;" vertex="1" parent="WIyWlLk6GJQsqaUBKTNV-1">
          <mxGeometry x="630" y="150" width="270" height="136" as="geometry" />
        </mxCell>
        <mxCell id="D7GcsO-b-HbT9hcHtuYs-7" value="" style="line;strokeWidth=1;fillColor=none;align=left;verticalAlign=middle;spacingTop=-1;spacingLeft=3;spacingRight=3;rotatable=0;labelPosition=right;points=[];portConstraint=eastwest;strokeColor=inherit;" vertex="1" parent="D7GcsO-b-HbT9hcHtuYs-5">
          <mxGeometry y="26" width="270" height="8" as="geometry" />
        </mxCell>
        <mxCell id="D7GcsO-b-HbT9hcHtuYs-8" value="+ findByPage(params): void&lt;br&gt;+ findList(params): void&lt;br&gt;+ getDetails(id): void&lt;br&gt;+ create(data): void&lt;br&gt;+ update(data): void&lt;br&gt;+ delete(id): void" style="text;strokeColor=none;fillColor=none;align=left;verticalAlign=top;spacingLeft=4;spacingRight=4;overflow=hidden;rotatable=0;points=[[0,0.5],[1,0.5]];portConstraint=eastwest;whiteSpace=wrap;html=1;" vertex="1" parent="D7GcsO-b-HbT9hcHtuYs-5">
          <mxGeometry y="34" width="270" height="102" as="geometry" />
        </mxCell>
        <mxCell id="D7GcsO-b-HbT9hcHtuYs-9" value="dataSourceRoute" style="swimlane;fontStyle=1;align=center;verticalAlign=top;childLayout=stackLayout;horizontal=1;startSize=26;horizontalStack=0;resizeParent=1;resizeParentMax=0;resizeLast=0;collapsible=1;marginBottom=0;whiteSpace=wrap;html=1;" vertex="1" parent="WIyWlLk6GJQsqaUBKTNV-1">
          <mxGeometry x="520" y="410" width="270" height="170" as="geometry" />
        </mxCell>
        <mxCell id="D7GcsO-b-HbT9hcHtuYs-10" value="+ dataSourcesModel:dataSourcesModel&lt;br&gt;+ dataSourcesDb: dataSourcesDb" style="text;strokeColor=none;fillColor=none;align=left;verticalAlign=top;spacingLeft=4;spacingRight=4;overflow=hidden;rotatable=0;points=[[0,0.5],[1,0.5]];portConstraint=eastwest;whiteSpace=wrap;html=1;" vertex="1" parent="D7GcsO-b-HbT9hcHtuYs-9">
          <mxGeometry y="26" width="270" height="34" as="geometry" />
        </mxCell>
        <mxCell id="D7GcsO-b-HbT9hcHtuYs-11" value="" style="line;strokeWidth=1;fillColor=none;align=left;verticalAlign=middle;spacingTop=-1;spacingLeft=3;spacingRight=3;rotatable=0;labelPosition=right;points=[];portConstraint=eastwest;strokeColor=inherit;" vertex="1" parent="D7GcsO-b-HbT9hcHtuYs-9">
          <mxGeometry y="60" width="270" height="8" as="geometry" />
        </mxCell>
        <mxCell id="D7GcsO-b-HbT9hcHtuYs-12" value="+ findByPage(params)&lt;br&gt;+ findList(params)&lt;br&gt;+ getDetails(id)&lt;br&gt;+ create(data)&lt;br&gt;+ update(data)&lt;br&gt;+ delete(id)&lt;br&gt;" style="text;strokeColor=none;fillColor=none;align=left;verticalAlign=top;spacingLeft=4;spacingRight=4;overflow=hidden;rotatable=0;points=[[0,0.5],[1,0.5]];portConstraint=eastwest;whiteSpace=wrap;html=1;" vertex="1" parent="D7GcsO-b-HbT9hcHtuYs-9">
          <mxGeometry y="68" width="270" height="102" as="geometry" />
        </mxCell>
      </root>
    </mxGraphModel>
  </diagram>
</mxfile>
